<?xml version="1.0" encoding="utf-8"?>
<svg width="622px" height="321px" viewBox="0 0 622 321" version="1.1" xmlns:xlink="http://www.w3.org/1999/xlink" xmlns="http://www.w3.org/2000/svg">
  <defs>
    <linearGradient x1="0" y1="0" x2="1" y2="1" id="gradient_1">
      <stop offset="0" stop-color="#B0AAD6" />
      <stop offset="1" stop-color="#2B2757" />
    </linearGradient>
  </defs>
  <g id="bg">
    <path d="M0 0L621.792 0L621.792 320.572L0 320.572L0 0L0 0Z" id="Rectangle" fill="url(#gradient_1)" fill-rule="evenodd" stroke="none" />
    <path d="M225.41 0L71.1821 60.3844C64.6478 62.7814 59.3184 70.7374 59.3184 77.9285L59.3184 232.154C53.9426 231.184 47.8718 231.286 41.5229 232.969C18.5833 239.141 0 261.938 0 283.561C0 305.186 18.5833 317.477 41.5229 311.306C64.1844 305.237 82.5823 283.306 83.0458 261.938C83.0458 261.683 83.0458 261.376 83.0458 261.121L83.0458 108.121L213.546 56.7124L213.546 192.985C208.171 192.016 202.1 192.118 195.751 193.801C172.811 199.972 154.228 222.77 154.228 244.394C154.228 266.017 172.811 278.309 195.751 272.138C218.691 265.967 237.274 243.577 237.274 221.954L237.274 13.0561C237.274 5.86504 231.944 0 225.41 0L225.41 0L225.41 0Z" transform="translate(233.06668 3.4664307)" id="Shape" fill="#FFFFFF" fill-opacity="0.24705882" fill-rule="evenodd" stroke="none" />
    <path d="M0 275.978C0 275.978 67.3117 233.908 105.174 164.914C143.037 95.9192 151.451 0 151.451 0L151.451 41.2284C151.451 41.2284 146.327 119.268 115.271 177.955C84.2153 236.643 50.9045 275.978 50.9045 275.978L0 275.978L0 275.978Z" transform="translate(470.34027 44.593994)" id="New-shape" fill="#FFFFFF" fill-opacity="0.24705882" fill-rule="evenodd" stroke="none" />
    <g id="Music-icon-5" transform="translate(62.80574 73.89575)">
      <path d="M130.237 33.9776C112.89 19.4212 123.45 15.4985 107.173 1.84064C103.271 -1.43364 100.249 0.186636 98.2026 2.62548L55.2275 53.8412C50.6967 59.2408 44.5249 61.4847 34.8475 53.3644C21.0412 41.7796 12.3411 40.5632 5.10463 49.1872C0.227887 54.9991 -5.98143 64.821 12.1806 80.0608C29.055 94.22 40.2914 81.5472 45.7804 75.0057C47.8821 72.501 53.7674 65.4872 60.1052 57.9341L84.6624 28.6679C87.4475 25.3735 89.243 24.1995 91.1941 25.8366C103.725 36.3512 94.4955 41.0749 111.882 55.664C111.882 55.664 116.76 59.7571 120.237 55.6135C125.466 49.3822 129.166 44.9728 131.151 42.6071C134.288 38.8683 133.344 36.5844 130.237 33.9776L130.237 33.9776L130.237 33.9776Z" id="Shape#1" fill="#FFFFFF" fill-opacity="0.24705882" fill-rule="evenodd" stroke="none" />
    </g>
    <g id="Music-icon-5-Copy" transform="translate(46.616653 193.97083)">
      <path d="M91.7421 12.8335C69.7076 10.9057 75.9592 1.85088 55.2846 0.0420852C50.3282 -0.391541 48.8181 2.59783 48.547 5.69563L42.8556 70.7491C42.2556 77.6077 38.5746 82.8605 26.2826 81.7851C8.74601 80.2509 1.10351 84.1522 0.145209 95.1057C-0.500628 102.488 0.0338845 113.825 23.1031 115.843C44.5367 117.719 46.4271 101.284 47.154 92.9759C47.4323 89.7941 48.2118 80.885 49.0511 71.2912L52.3034 34.1177C52.6861 29.9216 53.465 27.9764 55.9432 28.1931C71.8596 29.5857 67.1217 38.5357 89.2058 40.4678C89.2058 40.4678 95.4015 41.0098 95.8619 35.7467C96.5544 27.8318 97.0444 22.231 97.3073 19.2262C97.7228 14.4772 95.6885 13.1787 91.7421 12.8335L91.7421 12.8335L91.7421 12.8335Z" id="Shape#2" fill="#FFFFFF" fill-opacity="0.24705882" fill-rule="evenodd" stroke="none" />
    </g>
    <path d="M0 3.36558C0 1.50682 1.50682 0 3.36558 0C5.22435 0 6.73117 1.50682 6.73117 3.36558C6.73117 5.22435 5.22435 6.73117 3.36558 6.73117C1.50682 6.73117 0 5.22435 0 3.36558L0 3.36558Z" transform="translate(9.255341 7.6567383)" id="Ellipse" fill="#000000" fill-opacity="0.2509804" fill-rule="evenodd" stroke="none" />
    <path d="M0 3.36558C0 1.50682 1.50682 0 3.36558 0C5.22435 0 6.73117 1.50682 6.73117 3.36558C6.73117 5.22435 5.22435 6.73117 3.36558 6.73117C1.50682 6.73117 0 5.22435 0 3.36558L0 3.36558Z" transform="translate(24.400467 7.6567383)" id="Ellipse-Copy" fill="#000000" fill-opacity="0.2509804" fill-rule="evenodd" stroke="none" />
    <path d="M0 3.36558C0 1.50682 1.50682 0 3.36558 0C5.22435 0 6.73117 1.50682 6.73117 3.36558C6.73117 5.22435 5.22435 6.73117 3.36558 6.73117C1.50682 6.73117 0 5.22435 0 3.36558L0 3.36558Z" transform="translate(39.545593 7.6567383)" id="Ellipse-Copy-2" fill="#000000" fill-opacity="0.2509804" fill-rule="evenodd" stroke="none" />
    <path d="M0 3.36558C0 1.50682 1.50683 0 3.36559 0C5.22435 0 6.73117 1.50682 6.73117 3.36558C6.73117 5.22435 5.22435 6.73117 3.36559 6.73117C1.50683 6.73117 0 5.22435 0 3.36558L0 3.36558Z" transform="translate(54.69075 7.6567383)" id="Ellipse-Copy-3" fill="#000000" fill-opacity="0.2509804" fill-rule="evenodd" stroke="none" />
    <path d="M0 3.36558C0 1.50682 1.50683 0 3.36559 0C5.22435 0 6.73117 1.50682 6.73117 3.36558C6.73117 5.22435 5.22435 6.73117 3.36559 6.73117C1.50683 6.73117 0 5.22435 0 3.36558L0 3.36558Z" transform="translate(69.83588 7.6567383)" id="Ellipse-Copy-4" fill="#000000" fill-opacity="0.2509804" fill-rule="evenodd" stroke="none" />
    <path d="M0 3.36559C0 1.50682 1.50682 0 3.36558 0C5.22435 0 6.73117 1.50682 6.73117 3.36559C6.73117 5.22435 5.22435 6.73117 3.36558 6.73117C1.50682 6.73117 0 5.22435 0 3.36559L0 3.36559Z" transform="translate(9.255341 20.277588)" id="Ellipse-Copy-5" fill="#000000" fill-opacity="0.2509804" fill-rule="evenodd" stroke="none" />
    <path d="M0 3.36559C0 1.50682 1.50682 0 3.36558 0C5.22435 0 6.73117 1.50682 6.73117 3.36559C6.73117 5.22435 5.22435 6.73117 3.36558 6.73117C1.50682 6.73117 0 5.22435 0 3.36559L0 3.36559Z" transform="translate(24.400467 20.277588)" id="Ellipse-Copy-6" fill="#000000" fill-opacity="0.2509804" fill-rule="evenodd" stroke="none" />
    <path d="M0 3.36559C0 1.50682 1.50682 0 3.36558 0C5.22435 0 6.73117 1.50682 6.73117 3.36559C6.73117 5.22435 5.22435 6.73117 3.36558 6.73117C1.50682 6.73117 0 5.22435 0 3.36559L0 3.36559Z" transform="translate(39.545593 20.277588)" id="Ellipse-Copy-7" fill="#000000" fill-opacity="0.2509804" fill-rule="evenodd" stroke="none" />
    <path d="M0 3.36559C0 1.50682 1.50683 0 3.36559 0C5.22435 0 6.73117 1.50682 6.73117 3.36559C6.73117 5.22435 5.22435 6.73117 3.36559 6.73117C1.50683 6.73117 0 5.22435 0 3.36559L0 3.36559Z" transform="translate(54.69075 20.277588)" id="Ellipse-Copy-8" fill="#000000" fill-opacity="0.2509804" fill-rule="evenodd" stroke="none" />
    <path d="M0 3.36559C0 1.50682 1.50683 0 3.36559 0C5.22435 0 6.73117 1.50682 6.73117 3.36559C6.73117 5.22435 5.22435 6.73117 3.36559 6.73117C1.50683 6.73117 0 5.22435 0 3.36559L0 3.36559Z" transform="translate(69.83588 20.277588)" id="Ellipse-Copy-9" fill="#000000" fill-opacity="0.2509804" fill-rule="evenodd" stroke="none" />
    <path d="M0 3.36559C0 1.50682 1.50682 0 3.36558 0C5.22435 0 6.73117 1.50682 6.73117 3.36559C6.73117 5.22435 5.22435 6.73117 3.36558 6.73117C1.50682 6.73117 0 5.22435 0 3.36559L0 3.36559Z" transform="translate(9.255341 33.73987)" id="Ellipse-Copy-10" fill="#000000" fill-opacity="0.2509804" fill-rule="evenodd" stroke="none" />
    <path d="M0 3.36559C0 1.50682 1.50682 0 3.36558 0C5.22435 0 6.73117 1.50682 6.73117 3.36559C6.73117 5.22435 5.22435 6.73117 3.36558 6.73117C1.50682 6.73117 0 5.22435 0 3.36559L0 3.36559Z" transform="translate(24.400467 33.73987)" id="Ellipse-Copy-11" fill="#000000" fill-opacity="0.2509804" fill-rule="evenodd" stroke="none" />
    <path d="M0 3.36559C0 1.50682 1.50682 0 3.36558 0C5.22435 0 6.73117 1.50682 6.73117 3.36559C6.73117 5.22435 5.22435 6.73117 3.36558 6.73117C1.50682 6.73117 0 5.22435 0 3.36559L0 3.36559Z" transform="translate(39.545593 33.73987)" id="Ellipse-Copy-12" fill="#000000" fill-opacity="0.2509804" fill-rule="evenodd" stroke="none" />
    <path d="M0 3.36559C0 1.50682 1.50683 0 3.36559 0C5.22435 0 6.73117 1.50682 6.73117 3.36559C6.73117 5.22435 5.22435 6.73117 3.36559 6.73117C1.50683 6.73117 0 5.22435 0 3.36559L0 3.36559Z" transform="translate(54.69075 33.73987)" id="Ellipse-Copy-13" fill="#000000" fill-opacity="0.2509804" fill-rule="evenodd" stroke="none" />
    <path d="M0 3.36559C0 1.50682 1.50683 0 3.36559 0C5.22435 0 6.73117 1.50682 6.73117 3.36559C6.73117 5.22435 5.22435 6.73117 3.36559 6.73117C1.50683 6.73117 0 5.22435 0 3.36559L0 3.36559Z" transform="translate(69.83588 33.73987)" id="Ellipse-Copy-14" fill="#000000" fill-opacity="0.2509804" fill-rule="evenodd" stroke="none" />
    <path d="M0 3.36559C0 1.50682 1.50682 0 3.36558 0C5.22435 0 6.73117 1.50682 6.73117 3.36559C6.73117 5.22435 5.22435 6.73117 3.36558 6.73117C1.50682 6.73117 0 5.22435 0 3.36559L0 3.36559Z" transform="translate(10.096741 46.360962)" id="Ellipse-Copy-15" fill="#000000" fill-opacity="0.2509804" fill-rule="evenodd" stroke="none" />
    <path d="M0 3.36559C0 1.50682 1.50682 0 3.36558 0C5.22435 0 6.73117 1.50682 6.73117 3.36559C6.73117 5.22435 5.22435 6.73117 3.36558 6.73117C1.50682 6.73117 0 5.22435 0 3.36559L0 3.36559Z" transform="translate(25.241867 46.360962)" id="Ellipse-Copy-16" fill="#000000" fill-opacity="0.2509804" fill-rule="evenodd" stroke="none" />
    <path d="M0 3.36559C0 1.50682 1.50682 0 3.36558 0C5.22435 0 6.73117 1.50682 6.73117 3.36559C6.73117 5.22435 5.22435 6.73117 3.36558 6.73117C1.50682 6.73117 0 5.22435 0 3.36559L0 3.36559Z" transform="translate(40.387024 46.360962)" id="Ellipse-Copy-17" fill="#000000" fill-opacity="0.2509804" fill-rule="evenodd" stroke="none" />
    <path d="M0 3.36559C0 1.50682 1.50683 0 3.36559 0C5.22435 0 6.73117 1.50682 6.73117 3.36559C6.73117 5.22435 5.22435 6.73117 3.36559 6.73117C1.50683 6.73117 0 5.22435 0 3.36559L0 3.36559Z" transform="translate(55.53215 46.360962)" id="Ellipse-Copy-18" fill="#000000" fill-opacity="0.2509804" fill-rule="evenodd" stroke="none" />
    <path d="M0 3.36559C0 1.50682 1.50683 0 3.36559 0C5.22435 0 6.73117 1.50682 6.73117 3.36559C6.73117 5.22435 5.22435 6.73117 3.36559 6.73117C1.50683 6.73117 0 5.22435 0 3.36559L0 3.36559Z" transform="translate(70.67728 46.360962)" id="Ellipse-Copy-19" fill="#000000" fill-opacity="0.2509804" fill-rule="evenodd" stroke="none" />
    <path d="M0 3.36558C0 1.50682 1.50682 0 3.36558 0C5.22435 0 6.73117 1.50682 6.73117 3.36558C6.73117 5.22434 5.22435 6.73117 3.36558 6.73117C1.50682 6.73117 0 5.22434 0 3.36558L0 3.36558Z" transform="translate(9.255341 58.98181)" id="Ellipse-Copy-20" fill="#000000" fill-opacity="0.2509804" fill-rule="evenodd" stroke="none" />
    <path d="M0 3.36558C0 1.50682 1.50682 0 3.36558 0C5.22435 0 6.73117 1.50682 6.73117 3.36558C6.73117 5.22434 5.22435 6.73117 3.36558 6.73117C1.50682 6.73117 0 5.22434 0 3.36558L0 3.36558Z" transform="translate(24.400467 58.98181)" id="Ellipse-Copy-21" fill="#000000" fill-opacity="0.2509804" fill-rule="evenodd" stroke="none" />
    <path d="M0 3.36558C0 1.50682 1.50682 0 3.36558 0C5.22435 0 6.73117 1.50682 6.73117 3.36558C6.73117 5.22434 5.22435 6.73117 3.36558 6.73117C1.50682 6.73117 0 5.22434 0 3.36558L0 3.36558Z" transform="translate(39.545593 58.98181)" id="Ellipse-Copy-22" fill="#000000" fill-opacity="0.2509804" fill-rule="evenodd" stroke="none" />
    <path d="M0 3.36558C0 1.50682 1.50683 0 3.36559 0C5.22435 0 6.73117 1.50682 6.73117 3.36558C6.73117 5.22434 5.22435 6.73117 3.36559 6.73117C1.50683 6.73117 0 5.22434 0 3.36558L0 3.36558Z" transform="translate(54.69075 58.98181)" id="Ellipse-Copy-23" fill="#000000" fill-opacity="0.2509804" fill-rule="evenodd" stroke="none" />
    <path d="M0 3.36558C0 1.50682 1.50683 0 3.36559 0C5.22435 0 6.73117 1.50682 6.73117 3.36558C6.73117 5.22434 5.22435 6.73117 3.36559 6.73117C1.50683 6.73117 0 5.22434 0 3.36558L0 3.36558Z" transform="translate(69.83588 58.98181)" id="Ellipse-Copy-24" fill="#000000" fill-opacity="0.2509804" fill-rule="evenodd" stroke="none" />
    <path d="M0 3.36559C0 1.50683 1.50682 0 3.36558 0C5.22435 0 6.73117 1.50683 6.73117 3.36559C6.73117 5.22435 5.22435 6.73117 3.36558 6.73117C1.50682 6.73117 0 5.22435 0 3.36559L0 3.36559Z" transform="translate(10.096741 70.76135)" id="Ellipse-Copy-25" fill="#000000" fill-opacity="0.2509804" fill-rule="evenodd" stroke="none" />
    <path d="M0 3.36559C0 1.50683 1.50682 0 3.36558 0C5.22435 0 6.73117 1.50683 6.73117 3.36559C6.73117 5.22435 5.22435 6.73117 3.36558 6.73117C1.50682 6.73117 0 5.22435 0 3.36559L0 3.36559Z" transform="translate(25.241867 70.76135)" id="Ellipse-Copy-26" fill="#000000" fill-opacity="0.2509804" fill-rule="evenodd" stroke="none" />
    <path d="M0 3.36559C0 1.50683 1.50682 0 3.36558 0C5.22435 0 6.73117 1.50683 6.73117 3.36559C6.73117 5.22435 5.22435 6.73117 3.36558 6.73117C1.50682 6.73117 0 5.22435 0 3.36559L0 3.36559Z" transform="translate(40.387024 70.76135)" id="Ellipse-Copy-27" fill="#000000" fill-opacity="0.2509804" fill-rule="evenodd" stroke="none" />
    <path d="M0 3.36559C0 1.50683 1.50683 0 3.36559 0C5.22435 0 6.73117 1.50683 6.73117 3.36559C6.73117 5.22435 5.22435 6.73117 3.36559 6.73117C1.50683 6.73117 0 5.22435 0 3.36559L0 3.36559Z" transform="translate(55.53215 70.76135)" id="Ellipse-Copy-28" fill="#000000" fill-opacity="0.2509804" fill-rule="evenodd" stroke="none" />
    <path d="M0 3.36559C0 1.50683 1.50683 0 3.36559 0C5.22435 0 6.73117 1.50683 6.73117 3.36559C6.73117 5.22435 5.22435 6.73117 3.36559 6.73117C1.50683 6.73117 0 5.22435 0 3.36559L0 3.36559Z" transform="translate(70.67728 70.76135)" id="Ellipse-Copy-29" fill="#000000" fill-opacity="0.2509804" fill-rule="evenodd" stroke="none" />
  </g>
</svg>