<?xml version="1.0" encoding="utf-8"?>
<svg width="123px" height="135px" viewBox="0 0 123 135" version="1.1" xmlns:xlink="http://www.w3.org/1999/xlink" xmlns="http://www.w3.org/2000/svg">
  <g id="Music-icon">
    <path d="M109.397 0.517711L51.2861 18.2942C44.2368 20.2966 38.5361 27.6319 38.5361 34.6812L38.5361 95.1415C38.5361 95.1415 38.5361 95.9588 38.5361 95.9792C38.5361 95.9792 34.3269 93.1391 24.9483 94.4672C11.1767 96.4288 0 106.992 0 118.087C0 129.182 11.1767 135.966 24.9483 134.004C38.7404 132.063 48.8341 121.827 48.8341 110.732C48.8341 110.732 48.8341 63.3074 48.8341 58.3831C48.8341 53.4792 54.7392 51.3542 54.7392 51.3542L106.127 35.2533C106.127 35.2533 111.808 33.353 111.808 38.6042C111.808 43.8759 111.808 80.6139 111.808 80.6139C111.808 80.6139 111.808 80.6343 111.808 80.6547C111.808 80.6547 106.577 77.6307 97.1983 78.7749C83.4267 80.4504 72.25 90.7893 72.25 101.884C72.25 112.979 83.4267 119.988 97.1983 118.312C110.97 116.657 122.147 106.298 122.147 95.2028L122.147 9.61026C122.147 2.58141 116.425 -1.50513 109.397 0.517711L109.397 0.517711Z" id="Shape" fill="#948EB7" fill-rule="evenodd" stroke="none" />
  </g>
</svg>